<?xml version="1.0" encoding="UTF-8" standalone="no"?>
<!-- Created with Inkscape (http://www.inkscape.org/) -->

<svg
   xmlns:dc="http://purl.org/dc/elements/1.1/"
   xmlns:cc="http://creativecommons.org/ns#"
   xmlns:rdf="http://www.w3.org/1999/02/22-rdf-syntax-ns#"
   xmlns:svg="http://www.w3.org/2000/svg"
   xmlns="http://www.w3.org/2000/svg"
   xmlns:sodipodi="http://sodipodi.sourceforge.net/DTD/sodipodi-0.dtd"
   xmlns:inkscape="http://www.inkscape.org/namespaces/inkscape"
   version="1.1"
   id="svg10"
   xml:space="preserve"
   width="602.59998"
   height="167.93867"
   viewBox="0 0 602.59998 167.93867"
   sodipodi:docname="VAHealthLogoRGB.svg"
   inkscape:version="0.92.2 (5c3e80d, 2017-08-06)"><metadata
     id="metadata16"><rdf:RDF><cc:Work
         rdf:about=""><dc:format>image/svg+xml</dc:format><dc:type
           rdf:resource="http://purl.org/dc/dcmitype/StillImage" /><dc:title></dc:title></cc:Work></rdf:RDF></metadata><defs
     id="defs14"><clipPath
       clipPathUnits="userSpaceOnUse"
       id="clipPath26"><path
         d="M 0,125.954 H 451.95 V 0 H 0 Z"
         id="path24"
         inkscape:connector-curvature="0" /></clipPath></defs><sodipodi:namedview
     pagecolor="#ffffff"
     bordercolor="#666666"
     borderopacity="1"
     objecttolerance="10"
     gridtolerance="10"
     guidetolerance="10"
     inkscape:pageopacity="0"
     inkscape:pageshadow="2"
     inkscape:window-width="1920"
     inkscape:window-height="1013"
     id="namedview12"
     showgrid="false"
     inkscape:zoom="3.7172255"
     inkscape:cx="301.29999"
     inkscape:cy="83.969337"
     inkscape:window-x="-9"
     inkscape:window-y="-9"
     inkscape:window-maximized="1"
     inkscape:current-layer="g18" /><g
     id="g18"
     inkscape:groupmode="layer"
     inkscape:label="VAHealthLogoRGB"
     transform="matrix(1.3333333,0,0,-1.3333333,0,167.93867)"><g
       id="g20"><g
         id="g22"
         clip-path="url(#clipPath26)"><g
           id="g28"
           transform="translate(26.1211,15.0537)"><path
             d="m 0,0 -11.903,95.511 h 24.941 l 3.117,-38.544 c 0.992,-10.345 1.7,-21.256 2.551,-32.735 h 0.284 c 3.967,10.77 9.211,22.39 13.745,32.168 L 50.164,95.511 H 77.232 L 28.342,0 Z"
             style="fill:#213e71;fill-opacity:1;fill-rule:nonzero;stroke:none"
             id="path30"
             inkscape:connector-curvature="0" /></g><g
           id="g32"
           transform="translate(125.3193,55.7236)"><path
             d="m 0,0 -0.994,17.574 c -0.423,5.382 -0.706,13.32 -1.275,19.27 H -2.552 C -4.96,30.894 -7.653,22.815 -10.063,17.574 L -17.431,0 Z M -24.231,-18.138 -33.728,-40.67 H -59.66 l 45.347,95.511 H 17.288 L 27.492,-40.67 H 1.983 l -1.132,22.532 z"
             style="fill:#213e71;fill-opacity:1;fill-rule:nonzero;stroke:none"
             id="path34"
             inkscape:connector-curvature="0" /></g><g
           id="g36"
           transform="translate(186.2959,80.7246)"><path
             d="m 0,0 -4.857,-25.563 h 23.81 L 23.812,0 H 37.809 L 25.369,-65.509 H 11.373 l 5.152,27.504 H -7.191 l -5.248,-27.504 H -26.434 L -13.994,0 Z"
             style="fill:#5371a1;fill-opacity:1;fill-rule:nonzero;stroke:none"
             id="path38"
             inkscape:connector-curvature="0" /></g><g
           id="g40"
           transform="translate(255.4443,49.6201)"><path
             d="m 0,0 c 0,2.335 -1.941,3.988 -5.15,3.988 -6.512,0 -10.205,-5.347 -11.176,-9.818 C -5.441,-5.928 0,-4.373 0,-0.094 Z m 7.193,-31.684 c -5.541,-2.817 -12.439,-3.791 -17.689,-3.791 -13.606,0 -20.606,7.776 -20.606,20.12 0,14.482 10.498,29.546 27.702,29.546 9.619,0 16.521,-5.345 16.521,-14.191 0,-12.147 -11.76,-16.52 -30.81,-16.035 0,-1.361 0.486,-3.498 1.459,-4.86 1.847,-2.429 5.052,-3.695 9.134,-3.695 5.155,0 9.526,1.168 13.315,3.016 z"
             style="fill:#5371a1;fill-opacity:1;fill-rule:nonzero;stroke:none"
             id="path42"
             inkscape:connector-curvature="0" /></g><g
           id="g44"
           transform="translate(306.7627,52.8271)"><path
             d="m 0,0 c -1.068,0.197 -2.428,0.391 -3.789,0.391 -9.039,0 -15.648,-11.08 -15.648,-19.926 0,-4.666 1.847,-7.871 5.734,-7.871 4.18,0 9.33,4.761 11.469,16.426 z m -4.08,-37.611 c 0.096,2.817 0.389,6.025 0.68,9.425 h -0.291 c -4.375,-7.871 -10.401,-10.496 -15.94,-10.496 -8.555,0 -14.385,6.61 -14.385,16.526 0,16.034 10.594,33.14 34.016,33.14 5.639,0 11.762,-1.068 15.746,-2.333 l -5.053,-24.88 C 9.527,-22.354 8.652,-31.684 8.848,-37.611 Z"
             style="fill:#5371a1;fill-opacity:1;fill-rule:nonzero;stroke:none"
             id="path46"
             inkscape:connector-curvature="0" /></g><g
           id="g48"
           transform="translate(325.4268,15.2158)"><path
             d="M 0,0 13.219,69.007 H 27.213 L 13.998,0 Z"
             style="fill:#5371a1;fill-opacity:1;fill-rule:nonzero;stroke:none"
             id="path50"
             inkscape:connector-curvature="0" /></g><g
           id="g52"
           transform="translate(378.0088,75.6699)"><path
             d="M 0,0 -2.428,-12.927 H 7.68 L 5.639,-23.522 h -10.11 l -3.207,-16.135 c -0.388,-1.846 -0.777,-4.373 -0.777,-6.024 0,-2.334 0.973,-3.984 3.984,-3.984 1.264,0 2.625,0 3.889,0.193 l -1.654,-10.982 c -1.748,-0.681 -5.246,-1.07 -8.26,-1.07 -8.358,0 -12.342,4.375 -12.342,10.303 0,2.622 0.291,5.151 0.971,8.843 l 3.693,18.856 h -6.025 l 1.941,10.595 h 6.125 l 1.748,8.942 z"
             style="fill:#5371a1;fill-opacity:1;fill-rule:nonzero;stroke:none"
             id="path54"
             inkscape:connector-curvature="0" /></g><g
           id="g56"
           transform="translate(385.0107,15.2158)"><path
             d="M 0,0 13.021,69.007 H 27.016 L 21.77,41.5 21.965,41.404 c 3.887,4.371 8.842,7.192 15.162,7.192 7.385,0 11.955,-4.664 11.955,-12.83 0,-2.235 -0.391,-5.832 -0.875,-8.553 L 43.053,0 H 29.061 l 4.857,26.045 c 0.389,1.85 0.68,3.889 0.68,5.932 0,3.108 -1.36,5.345 -4.858,5.345 -4.859,0 -9.818,-5.931 -11.664,-15.553 L 13.994,0 Z"
             style="fill:#5371a1;fill-opacity:1;fill-rule:nonzero;stroke:none"
             id="path58"
             inkscape:connector-curvature="0" /></g></g></g></g></svg>